<svg xmlns="http://www.w3.org/2000/svg" width="225.555" height="38" viewBox="0 0 225.555 38"><g transform="translate(-44.223 -604.002)"><path d="M251.536,397.956h0a9.133,9.133,0,0,0-8.719-7.276,8.774,8.774,0,0,0-8.839,7.186l-3.21,11.456c-.922,3.06-1.2,3.982-1.2,6.18a13.133,13.133,0,1,0,25.811-3.384l-3.827-14.157m-8.947,28.075a10.444,10.444,0,0,1-10.384-10.51c0-1.8.228-2.515,1.108-5.432l3.246-11.582c.779-3.252,3.1-5.162,6.2-5.138a6.446,6.446,0,0,1,6.132,5.228h0l3.162,11.69c.85,2.9,1.03,3.5,1.006,5.39a10.408,10.408,0,0,1-10.492,10.348Z" transform="translate(-113.849 213.322)"/><path d="M245.373,417.07a9.067,9.067,0,1,0,9.061,9.065,9.067,9.067,0,0,0-9.061-9.065m0,15.421a6.354,6.354,0,1,1,6.348-6.354A6.354,6.354,0,0,1,245.373,432.491Z" transform="translate(-116.549 202.736)"/><path d="M248.181,424.08a4.875,4.875,0,1,0,4.869,4.869,4.875,4.875,0,0,0-4.869-4.869m0,7.061a2.186,2.186,0,1,1,2.18-2.192,2.186,2.186,0,0,1-2.18,2.192Z" transform="translate(-119.356 199.924)"/><path d="M285.252,421.47l-.952,6.749h2.8s.455-3.174.6-3.988h9.211l2.276,3.976h3.192s-1.91-3.36-2.36-4.162a4.066,4.066,0,0,0,3.467-4.192,3.551,3.551,0,0,0-3.539-3.773H285.785l-.371,2.791h13.96a1.294,1.294,0,0,1,1.27,1.306,1.276,1.276,0,0,1-1.276,1.276Z" transform="translate(-135.804 203.133)"/><path d="M477.74,414.429a2.719,2.719,0,1,0,2.719-2.719,2.719,2.719,0,0,0-2.719,2.719m.449,0a2.27,2.27,0,1,1,2.27,2.27,2.27,2.27,0,0,1-2.27-2.27Z" transform="translate(-213.399 204.885)"/><path d="M479.65,415.334l-.18,1.246h.521s.084-.6.108-.737h1.707l.419.737h.6l-.437-.767a.755.755,0,0,0,.641-.779.653.653,0,0,0-.653-.695h-2.617l-.066.515h2.581a.233.233,0,0,1,.234.24.24.24,0,0,1-.234.24Z" transform="translate(-214.093 203.83)"/><path d="M332.518,416.11c-3.354,0-5.815,1.156-8.492,3.958l-8.216,8.192h4.036l6.186-6.228c2.132-2.228,3.953-3.09,6.5-3.1h2.03l-1.228,9.342h2.809l1.593-12.133Z" transform="translate(-148.443 203.121)"/><path d="M362.942,416.11a6.773,6.773,0,0,0-6.761,5.989,5.534,5.534,0,0,0,1.2,4.432,5.39,5.39,0,0,0,4.192,1.749h11.546l.365-2.8H361.714a2.8,2.8,0,0,1-2.18-.85,2.9,2.9,0,0,1-.6-2.342,3.779,3.779,0,0,1,3.815-3.372H374.3l.365-2.791h-11.72Z" transform="translate(-164.607 203.121)"/><path d="M447.644,418.9H459.19l.365-2.791H447.812a6.779,6.779,0,0,0-6.761,5.989,5.533,5.533,0,0,0,1.2,4.432,5.426,5.426,0,0,0,4.192,1.749h11.546l.9-6.9h-2.8l-.539,4.1h-8.965a2.8,2.8,0,0,1-2.18-.85,2.9,2.9,0,0,1-.6-2.342A3.779,3.779,0,0,1,447.644,418.9Z" transform="translate(-198.652 203.121)"/><path d="M282.483,25.45,280.89,37.583h2.8l1.593-12.133Z" transform="translate(-68.453 593.799)"/><path d="M309.292,32.781,294.165,23.96,292.5,36.991h2.8l1.084-8.522,15.121,8.821,1.665-12.714h-2.8Z" transform="translate(-73.109 594.396)"/><path d="M157.644,416.11c-3.354,0-5.821,1.156-8.5,3.958l-8.21,8.192h4.036l6.186-6.228c2.138-2.228,3.958-3.09,6.51-3.1H159.7c-.132.976-1.228,9.342-1.228,9.342h2.8l1.6-12.133Z" transform="translate(-78.292 203.121)"/><path d="M129.469,420.8H114.564a3.881,3.881,0,0,1,3.162-1.88h12.139l.365-2.791H117.893a7.031,7.031,0,0,0-6.761,5.989l-.192,1.485h14.9a3.863,3.863,0,0,1-3.156,1.88H110.539l-.359,2.8h12.331a7.037,7.037,0,0,0,6.761-5.989Z" transform="translate(-65.957 203.113)"/><path d="M72.639,25.45l-1.6,12.133h2.809L75.442,25.45Z" transform="translate(15.726 593.799)"/><path d="M86.346,25.45h-2.8L81.95,37.583H97.718l.359-2.791H85.118Z" transform="translate(11.35 593.799)"/></g></svg>